<svg width="1120" height="699" viewBox="0 0 1120 699" fill="none" xmlns="http://www.w3.org/2000/svg">
<g clip-path="url(#clip0_2_2)">
<path d="M292.609 426C410.246 426 505.609 330.637 505.609 213C505.609 95.3633 410.246 0 292.609 0C174.972 0 79.6091 95.3633 79.6091 213C79.6091 330.637 174.972 426 292.609 426Z" fill="white" fill-opacity="0.6"/>
<path d="M0 51.1424C0 128.64 48.6181 191.351 108.701 191.351Z" fill="white"/>
<path d="M108.701 191.351C108.701 112.982 162.956 49.567 230.004 49.567Z" fill="#111111"/>
<path d="M39.3843 58.1677C39.3843 131.782 70.3871 191.351 108.701 191.351Z" fill="#222222"/>
<path d="M108.701 191.351C108.701 91.2128 171.411 10.1827 248.909 10.1827Z" fill="#444444"/>
<path d="M85.8329 192.339C85.8329 192.339 101.248 191.864 105.894 188.556C110.54 185.248 129.607 181.298 130.76 186.603C131.912 191.909 153.927 212.991 136.522 213.132C119.118 213.272 96.0831 210.421 91.4462 207.596C86.8093 204.772 85.8329 192.339 85.8329 192.339Z" fill="#A8A8A8"/>
<path opacity="0.2" d="M136.833 211.285C119.429 211.425 96.3938 208.574 91.7569 205.749C88.2256 203.598 86.8185 195.88 86.3476 192.319C86.0216 192.333 85.833 192.339 85.833 192.339C85.833 192.339 86.8094 204.772 91.4463 207.596C96.0832 210.421 119.118 213.272 136.523 213.132C141.546 213.091 143.282 211.304 143.186 208.656C142.489 210.256 140.572 211.255 136.833 211.285Z" fill="black"/>
<path d="M198.609 449.94C301.886 449.94 385.609 438.55 385.609 424.5C385.609 410.45 301.886 399.06 198.609 399.06C95.3319 399.06 11.6091 410.45 11.6091 424.5C11.6091 438.55 95.3319 449.94 198.609 449.94Z" fill="white"/>
<path d="M198.609 445.859C285.318 445.859 355.609 436.296 355.609 424.5C355.609 412.704 285.318 403.141 198.609 403.141C111.9 403.141 41.6091 412.704 41.6091 424.5C41.6091 436.296 111.9 445.859 198.609 445.859Z" fill="#111111"/>
<path d="M836.609 699C992.906 699 1119.61 681.763 1119.61 660.5C1119.61 639.237 992.906 622 836.609 622C680.313 622 553.609 639.237 553.609 660.5C553.609 681.763 680.313 699 836.609 699Z" fill="#333333"/>
<path d="M310.609 668.627C404.498 668.627 480.609 658.273 480.609 645.5C480.609 632.727 404.498 622.373 310.609 622.373C216.721 622.373 140.609 632.727 140.609 645.5C140.609 658.273 216.721 668.627 310.609 668.627Z" fill="white" fill-opacity="0.6"/>
<path d="M462.609 626C552.609 649 725.609 596 744.609 536" stroke="white" stroke-opacity="0.9" stroke-width="2" stroke-miterlimit="10"/>
<path d="M309.609 259C309.609 259 439.609 223 447.609 339C455.609 455 340.609 488 430.609 511" stroke="white" stroke-opacity="0.9" stroke-width="2" stroke-miterlimit="10"/>
<path d="M184.011 537.283C184.011 537.283 223.084 526.463 225.488 561.328C227.893 596.192 193.329 606.111 220.379 613.024" stroke="white" stroke-opacity="0.9" stroke-width="2" stroke-miterlimit="10"/>
<path d="M778.705 563.24L770.827 613.535C770.827 613.535 732.045 634.138 759.314 634.744C786.582 635.35 915.047 634.744 915.047 634.744C915.047 634.744 939.892 634.744 900.504 612.929L892.626 560.21L778.705 563.24Z" fill="#222222"/>
<path opacity="0.1" d="M753.828 634.198C760.021 628.688 770.827 622.946 770.827 622.946L778.705 572.651L892.626 572.758L900.504 622.34C909.689 627.427 915.379 631.327 918.707 634.318C923.766 633.164 929.295 628.875 900.504 612.929L892.626 560.21L778.705 563.24L770.827 613.535C770.827 613.535 738.239 630.85 753.828 634.198Z" fill="black"/>
<path d="M1073.64 212.689H596.479C586.512 212.689 578.433 220.768 578.433 230.734V552.163C578.433 562.129 586.512 570.208 596.479 570.208H1073.64C1083.61 570.208 1091.69 562.129 1091.69 552.163V230.734C1091.69 220.768 1083.61 212.689 1073.64 212.689Z" fill="#333333"/>
<path d="M1074.71 232H596V499.837H1074.71V232Z" fill="white" fill-opacity="0.3"/>
<path d="M835.06 226.323C836.733 226.323 838.089 224.966 838.089 223.293C838.089 221.62 836.733 220.263 835.06 220.263C833.386 220.263 832.03 221.62 832.03 223.293C832.03 224.966 833.386 226.323 835.06 226.323Z" fill="#F2F2F2"/>
<path d="M1091.69 520.822V552.163C1091.69 554.533 1091.22 556.879 1090.31 559.069C1089.41 561.258 1088.08 563.248 1086.4 564.924C1084.73 566.599 1082.74 567.929 1080.55 568.835C1078.36 569.742 1076.01 570.209 1073.64 570.208H596.479C594.109 570.209 591.762 569.742 589.573 568.835C587.383 567.929 585.393 566.599 583.718 564.924C582.042 563.248 580.713 561.258 579.806 559.069C578.899 556.879 578.433 554.533 578.433 552.163V520.822H1091.69Z" fill="#222222"/>
<path d="M968.978 667.466V673.526H642.968V668.678L643.417 667.466L651.452 645.651H962.312L968.978 667.466Z" fill="white" fill-opacity="0.7"/>
<path d="M1094.44 661.534C1093.84 664.073 1091.6 666.751 1086.54 669.284C1068.36 678.373 1031.39 666.86 1031.39 666.86C1031.39 666.86 1002.91 662.012 1002.91 649.287C1003.71 648.739 1004.55 648.244 1005.41 647.803C1013.05 643.759 1038.39 633.781 1083.33 648.225C1086.64 649.264 1089.59 651.202 1091.87 653.822C1093.69 655.954 1095.12 658.657 1094.44 661.534Z" fill="white" fill-opacity="0.7"/>
<path d="M1094.44 661.534C1072.19 670.06 1052.35 670.696 1032 656.559C1021.73 649.432 1012.41 647.669 1005.41 647.802C1013.05 643.759 1038.39 633.781 1083.33 648.225C1086.64 649.264 1089.59 651.202 1091.87 653.822C1093.69 655.953 1095.12 658.657 1094.44 661.534Z" fill="#111111"/>
<path d="M1066.54 656.559C1070.89 656.559 1074.42 655.473 1074.42 654.135C1074.42 652.796 1070.89 651.711 1066.54 651.711C1062.19 651.711 1058.66 652.796 1058.66 654.135C1058.66 655.473 1062.19 656.559 1066.54 656.559Z" fill="white" fill-opacity="0.9"/>
<path d="M835.06 557.18C841.418 557.18 846.573 552.026 846.573 545.667C846.573 539.308 841.418 534.154 835.06 534.154C828.701 534.154 823.546 539.308 823.546 545.667C823.546 552.026 828.701 557.18 835.06 557.18Z" fill="#F2F2F2"/>
<path opacity="0.1" d="M968.978 667.466V673.526H642.968V668.678L643.417 667.466H968.978Z" fill="black"/>
<path d="M316.609 159H108.609V401H316.609V159Z" fill="#222222"/>
<path d="M337.609 135H87.6091V221H337.609V135Z" fill="#333333"/>
<path d="M337.609 237H87.6091V323H337.609V237Z" fill="#333333"/>
<path d="M337.609 339H87.6091V425H337.609V339Z" fill="#333333"/>
<path opacity="0.4" d="M287.609 150H271.609V166H287.609V150Z" fill="#111111"/>
<path opacity="0.8" d="M310.609 150H294.609V166H310.609V150Z" fill="#111111"/>
<path d="M333.609 150H317.609V166H333.609V150Z" fill="#111111"/>
<path opacity="0.4" d="M287.609 251H271.609V267H287.609V251Z" fill="#111111"/>
<path opacity="0.8" d="M310.609 251H294.609V267H310.609V251Z" fill="#111111"/>
<path d="M333.609 251H317.609V267H333.609V251Z" fill="#111111"/>
<path opacity="0.4" d="M287.609 352H271.609V368H287.609V352Z" fill="#111111"/>
<path opacity="0.8" d="M310.609 352H294.609V368H310.609V352Z" fill="#111111"/>
<path d="M333.609 352H317.609V368H333.609V352Z" fill="#111111"/>
<path d="M316.609 617C360.24 617 395.609 581.63 395.609 538C395.609 494.37 360.24 459 316.609 459C272.979 459 237.609 494.37 237.609 538C237.609 581.63 272.979 617 316.609 617Z" fill="white"/>
<path d="M304.609 600H280.609V643H304.609V600Z" fill="#222222"/>
<path d="M352.609 600H328.609V643H352.609V600Z" fill="#222222"/>
<path d="M300.609 651C311.655 651 320.609 647.642 320.609 643.5C320.609 639.358 311.655 636 300.609 636C289.563 636 280.609 639.358 280.609 643.5C280.609 647.642 289.563 651 300.609 651Z" fill="#222222"/>
<path d="M348.609 650C359.655 650 368.609 646.642 368.609 642.5C368.609 638.358 359.655 635 348.609 635C337.563 635 328.609 638.358 328.609 642.5C328.609 646.642 337.563 650 348.609 650Z" fill="#222222"/>
<path d="M318.609 545C333.521 545 345.609 532.912 345.609 518C345.609 503.088 333.521 491 318.609 491C303.697 491 291.609 503.088 291.609 518C291.609 532.912 303.697 545 318.609 545Z" fill="#111111"/>
<path d="M318.609 527C323.58 527 327.609 522.971 327.609 518C327.609 513.029 323.58 509 318.609 509C313.639 509 309.609 513.029 309.609 518C309.609 522.971 313.639 527 318.609 527Z" fill="white"/>
<path d="M239.976 464.532C233.598 435.965 253.988 407.098 285.52 400.057C317.053 393.017 347.786 410.467 354.164 439.035C360.543 467.603 339.646 478.139 308.114 485.18C276.582 492.221 246.355 493.1 239.976 464.532Z" fill="#222222"/>
<path d="M390.703 522.244C410.759 513.66 424.833 501.597 422.138 495.301C419.443 489.005 401 490.86 380.945 499.444C360.889 508.028 346.816 520.09 349.511 526.386C352.205 532.682 370.648 530.827 390.703 522.244Z" fill="white" fill-opacity="0.8"/>
<path d="M242.703 575.244C262.759 566.66 276.833 554.597 274.138 548.301C271.443 542.005 253 543.86 232.945 552.444C212.889 561.027 198.816 573.09 201.51 579.386C204.205 585.682 222.648 583.827 242.703 575.244Z" fill="white" fill-opacity="0.8"/>
<path d="M362.609 561C362.609 568.732 342.701 584 320.609 584C298.518 584 277.609 569.732 277.609 562C277.609 554.268 298.518 556 320.609 556C342.701 556 362.609 553.268 362.609 561Z" fill="#111111"/>
<path d="M752.862 355.694C752.68 355.163 752.375 354.683 751.97 354.294C751.821 354.156 751.66 354.031 751.488 353.922C750.119 353.009 748.074 352.805 746.774 353.922C746.643 354.035 746.522 354.16 746.412 354.294C746.024 354.771 745.625 355.238 745.216 355.694C744.545 356.46 743.858 357.199 743.14 357.917C742.935 358.117 742.731 358.321 742.521 358.52C742.401 358.641 742.28 358.756 742.159 358.872C741.698 359.312 741.226 359.737 740.749 360.157C740.497 360.382 740.245 360.602 739.988 360.817C739.606 361.137 739.223 361.457 738.835 361.766C738.798 361.793 738.761 361.819 738.725 361.85C738.714 361.855 738.709 361.866 738.698 361.871C738.693 361.871 738.688 361.871 738.683 361.882C738.669 361.887 738.656 361.896 738.646 361.908C738.531 361.987 738.452 362.039 738.394 362.086C738.415 362.076 738.436 362.06 738.457 362.049C738.363 362.123 738.263 362.196 738.169 362.27C737.251 362.946 736.313 363.596 735.353 364.205C732.979 365.724 730.485 367.048 727.896 368.164C727.723 368.232 727.545 368.305 727.367 368.373C720.589 371.15 713.237 372.234 705.946 371.53C705.202 371.472 704.457 371.394 703.713 371.294C702.853 371.168 701.998 371.016 701.148 370.843C697.914 370.198 694.75 369.243 691.699 367.991C687.883 366.243 684.253 364.114 680.866 361.635C680.341 361.263 679.812 360.891 679.282 360.529C679.885 359.05 680.478 357.571 681.055 356.082C681.343 355.364 681.621 354.645 681.894 353.922C684.038 348.348 686.052 342.721 687.982 337.074C689.932 331.353 691.773 325.599 693.503 319.812C693.681 319.224 693.854 318.637 694.022 318.05C694.929 314.993 695.8 311.929 696.634 308.858C696.712 308.559 696.796 308.265 696.87 307.966C697.111 307.085 697.347 306.204 697.577 305.323C698.102 303.336 696.917 300.961 694.83 300.483C693.825 300.226 692.759 300.368 691.858 300.881C690.956 301.393 690.288 302.236 689.995 303.231C689.77 304.081 689.544 304.925 689.313 305.774C688.207 309.88 687.043 313.972 685.821 318.05C685.643 318.637 685.465 319.224 685.286 319.812C682.591 328.694 679.632 337.488 676.409 346.193C676.021 347.247 675.627 348.297 675.229 349.344C675.035 349.858 674.841 350.372 674.642 350.886C674.259 351.898 673.866 352.91 673.472 353.922C673.247 354.514 673.016 355.107 672.785 355.694C672.633 356.066 672.486 356.439 672.34 356.806C670.845 356.269 669.296 355.896 667.72 355.694L667.468 355.663C666.247 355.516 665.011 355.526 663.792 355.694C661.968 355.907 660.213 356.518 658.651 357.484C657.089 358.45 655.758 359.747 654.752 361.284C652.251 365.222 652.283 370.854 655.791 374.199C659.403 377.644 664.873 377.618 669.125 375.463C671.379 374.244 673.279 372.463 674.642 370.293C675.164 369.506 675.643 368.692 676.078 367.854C676.188 367.928 676.299 368.001 676.409 368.08C676.828 368.373 677.248 368.672 677.662 368.966C680.076 370.715 682.619 372.276 685.271 373.638C690.971 376.472 697.108 378.328 703.424 379.128C703.566 379.144 703.702 379.165 703.844 379.181C704.541 379.27 705.244 379.338 705.946 379.396C716.026 380.155 726.118 378.093 735.091 373.439C735.851 373.046 736.605 372.633 737.351 372.201C738.51 371.53 739.642 370.817 740.749 370.062C741.352 369.653 741.939 369.239 742.521 368.803C745.065 366.93 747.435 364.833 749.605 362.537C750.429 361.672 751.217 360.779 751.97 359.858C752.683 359.104 753.093 358.115 753.124 357.078C753.12 356.605 753.031 356.136 752.862 355.694V355.694ZM666.031 368.185C666.142 368.106 666.252 368.022 666.357 367.938C666.325 368.017 666.173 368.106 666.031 368.185H666.031ZM667.715 366.491C667.594 366.627 667.484 366.764 667.363 366.9C666.996 367.311 666.602 367.696 666.184 368.054C666.126 368.106 666.063 368.158 666 368.206C665.999 368.206 665.999 368.206 665.998 368.206C665.997 368.206 665.997 368.207 665.996 368.207C665.996 368.208 665.995 368.208 665.995 368.209C665.995 368.209 665.995 368.21 665.995 368.211C665.919 368.245 665.845 368.283 665.774 368.326C665.549 368.463 665.318 368.588 665.082 368.704C664.62 368.874 664.145 369.005 663.661 369.097C663.29 369.124 662.917 369.128 662.544 369.107H662.534C662.277 369.05 662.023 368.98 661.774 368.898C661.648 368.835 661.527 368.761 661.407 368.688C661.359 368.646 661.317 368.604 661.291 368.578C661.24 368.531 661.193 368.48 661.15 368.426C661.15 368.425 661.149 368.424 661.149 368.424C661.149 368.423 661.149 368.423 661.148 368.422C661.148 368.422 661.147 368.421 661.146 368.421C661.146 368.421 661.145 368.421 661.144 368.421C661.087 368.316 661.024 368.211 660.966 368.106C660.963 368.103 660.961 368.099 660.961 368.095C660.919 367.964 660.882 367.828 660.851 367.692C660.839 367.452 660.841 367.213 660.856 366.973C660.926 366.638 661.021 366.309 661.139 365.988C661.245 365.76 661.366 365.539 661.501 365.327C661.511 365.306 661.564 365.222 661.622 365.128C661.627 365.122 661.627 365.122 661.627 365.117C661.705 365.028 661.784 364.934 661.868 364.85C662.01 364.692 662.162 364.556 662.314 364.414C662.609 364.221 662.916 364.044 663.231 363.885C663.732 363.707 664.246 363.568 664.768 363.471C665.538 363.409 666.312 363.416 667.08 363.492C667.808 363.618 668.527 363.795 669.23 364.021C668.804 364.849 668.318 365.644 667.778 366.402C667.757 366.433 667.736 366.465 667.715 366.491V366.491ZM661.884 364.766C661.838 364.84 661.783 364.908 661.721 364.97C661.763 364.893 661.818 364.824 661.884 364.766V364.766Z" fill="white"/>
<path d="M737.099 302.14C737.052 303.787 737.005 305.433 736.958 307.08C736.858 310.735 736.755 314.391 736.648 318.05C736.538 322.166 736.423 326.281 736.302 330.393C736.244 332.517 736.185 334.641 736.124 336.764C735.961 342.485 735.8 348.204 735.641 353.922C735.626 354.514 735.605 355.102 735.589 355.694C735.51 358.531 735.432 361.368 735.353 364.205C735.264 367.283 735.176 370.361 735.091 373.439C735.028 375.746 734.963 378.055 734.897 380.366C734.425 397.109 733.953 413.852 733.481 430.595C733.461 431.632 733.04 432.621 732.307 433.354C731.574 434.087 730.585 434.508 729.548 434.528C728.508 434.519 727.512 434.102 726.777 433.367C726.041 432.631 725.624 431.635 725.616 430.595C725.878 421.177 726.143 411.76 726.413 402.342C726.649 393.826 726.888 385.31 727.131 376.795C727.21 373.989 727.288 371.182 727.367 368.373C727.488 364.147 727.606 359.921 727.723 355.694C727.739 355.102 727.76 354.514 727.776 353.922C727.786 353.403 727.802 352.889 727.818 352.37C728.049 344.163 728.279 335.955 728.51 327.745C728.604 324.515 728.695 321.283 728.783 318.05C728.888 314.363 728.992 310.679 729.097 306.996C729.145 305.376 729.186 303.761 729.234 302.14C729.254 301.104 729.674 300.115 730.408 299.382C731.141 298.648 732.13 298.228 733.166 298.208C734.207 298.216 735.202 298.633 735.938 299.369C736.674 300.104 737.091 301.1 737.099 302.14V302.14Z" fill="white"/>
<path d="M952.839 303.232C948.715 318.847 943.786 334.239 938.072 349.345C936.496 353.512 934.883 357.671 933.158 361.779L933.555 360.84C932.785 362.797 931.802 364.663 930.624 366.404C930.544 366.516 930.462 366.628 930.379 366.738C930.786 366.217 930.864 366.114 930.611 366.429C930.478 366.587 930.346 366.745 930.209 366.899C929.842 367.309 929.448 367.695 929.029 368.054C928.924 368.144 928.817 368.232 928.709 368.318L929.2 367.936C929.143 368.071 928.743 368.249 928.618 368.326C928.214 368.569 927.792 368.783 927.357 368.965L928.296 368.568C927.583 368.856 926.838 369.06 926.078 369.177L927.123 369.036C926.376 369.139 925.619 369.148 924.869 369.06L925.915 369.201C925.302 369.116 924.702 368.955 924.13 368.72L925.069 369.116C924.764 368.983 924.469 368.826 924.189 368.647C924.046 368.554 923.609 368.223 924.181 368.659C924.775 369.113 924.257 368.698 924.135 368.578C924.033 368.477 923.941 368.368 923.841 368.266C923.379 367.791 924.364 369.082 924.05 368.527C923.881 368.249 923.728 367.963 923.589 367.669L923.985 368.608C923.805 368.161 923.677 367.695 923.604 367.218L923.744 368.264C923.669 367.671 923.669 367.071 923.743 366.478L923.602 367.524C923.698 366.862 923.873 366.214 924.124 365.594L923.727 366.533C923.902 366.116 924.108 365.713 924.345 365.328C924.454 365.129 924.582 364.941 924.727 364.766C924.753 364.775 924.062 365.56 924.428 365.163C924.524 365.06 924.614 364.95 924.711 364.848C924.866 364.683 925.033 364.532 925.196 364.377C925.744 363.855 924.43 364.883 925.062 364.471C925.52 364.169 926.002 363.906 926.504 363.684L925.564 364.081C926.404 363.736 927.284 363.5 928.183 363.378L927.138 363.519C928.264 363.389 929.403 363.403 930.526 363.559L929.48 363.418C930.902 363.634 932.292 364.025 933.618 364.582L932.679 364.186C935.505 365.399 938.008 367.201 940.507 368.967C942.92 370.715 945.463 372.276 948.113 373.637C953.815 376.472 959.952 378.329 966.268 379.13C975.327 380.239 984.519 379.056 993.002 375.689C1001.48 372.322 1008.99 366.878 1014.82 359.858C1015.53 359.103 1015.94 358.114 1015.97 357.077C1015.96 356.036 1015.55 355.038 1014.82 354.296C1013.37 352.972 1010.65 352.598 1009.26 354.296C1007.93 355.908 1006.52 357.437 1005 358.872C1004.3 359.541 1003.58 360.19 1002.83 360.818C1002.41 361.176 1001.98 361.528 1001.54 361.872C1001.34 362.035 1000.69 362.469 1001.68 361.769C1001.45 361.929 1001.24 362.105 1001.01 362.269C997.711 364.704 994.133 366.739 990.352 368.334L991.292 367.937C987.235 369.639 982.974 370.806 978.617 371.41L979.662 371.269C975.18 371.859 970.639 371.852 966.158 371.249L967.204 371.39C962.724 370.775 958.342 369.581 954.169 367.84L955.109 368.236C951.082 366.454 947.26 364.241 943.711 361.634C941.864 360.266 939.916 359.04 937.884 357.966C935.516 356.757 932.953 355.978 930.313 355.665C925.363 355.083 920.32 357.01 917.599 361.287C915.095 365.222 915.127 370.853 918.634 374.199C922.245 377.646 927.715 377.616 931.971 375.461C936.071 373.384 938.533 369.071 940.264 365.004C944.161 355.851 947.611 346.486 950.825 337.074C954.005 327.763 956.889 318.356 959.476 308.856C959.797 307.68 960.113 306.502 960.424 305.323C960.949 303.336 959.763 300.96 957.677 300.485C956.672 300.226 955.605 300.368 954.703 300.88C953.8 301.393 953.132 302.236 952.839 303.232L952.839 303.232Z" fill="white"/>
<path d="M992.079 302.14L990.664 352.371L989.255 402.34L988.459 430.595C988.468 431.636 988.885 432.631 989.621 433.366C990.356 434.102 991.352 434.519 992.392 434.528C993.429 434.508 994.417 434.087 995.151 433.354C995.884 432.621 996.305 431.632 996.325 430.595L997.74 380.364L999.148 330.395L999.945 302.14C999.936 301.1 999.519 300.105 998.783 299.369C998.047 298.633 997.052 298.216 996.012 298.207C994.975 298.227 993.986 298.648 993.253 299.381C992.52 300.115 992.099 301.103 992.079 302.14V302.14Z" fill="white"/>
<path d="M855.954 416.571H857.175V360.966H885.663V359.748H857.175V336.285H879.175C878.853 335.875 878.521 335.47 878.18 335.07H857.175V319.574C856.771 319.401 856.364 319.235 855.954 319.079V335.07H832.015V315.215C831.605 315.234 831.201 315.262 830.794 315.296V335.07H811.697V320.256C811.286 320.438 810.883 320.629 810.482 320.829V335.07H794.428V336.285H810.482V359.748H794.428V360.966H810.482V416.571H811.697V360.966C814.205 360.965 816.688 361.459 819.006 362.419C821.323 363.378 823.428 364.785 825.202 366.558C826.975 368.332 828.382 370.437 829.342 372.754C830.301 375.072 830.795 377.555 830.794 380.063V416.571H832.015V360.966H855.954V416.571ZM811.697 359.748V336.285H830.794V359.748H811.697ZM832.015 359.748V336.285H832.495C835.576 336.285 838.626 336.892 841.473 338.072C844.319 339.251 846.905 340.979 849.084 343.158C851.262 345.337 852.99 347.923 854.169 350.77C855.348 353.616 855.954 356.667 855.954 359.748H832.015Z" fill="#444444"/>
<path d="M887.571 340.079C883.057 331.273 876.063 323.865 867.838 318.42C859.586 312.984 850.117 309.673 840.276 308.783C838.986 308.665 837.692 308.597 836.396 308.577C834.864 308.554 811.821 315.2 804.102 320.628C796.387 325.989 790.04 333.089 785.574 341.354C781.116 349.665 778.923 359.003 779.216 368.429C779.598 377.913 782.241 387.167 786.925 395.422C791.546 403.649 798.106 410.624 806.036 415.739C814.078 420.871 822.157 434.477 831.653 434.958C841.221 435.442 852.132 422.606 860.858 418.709C869.584 414.779 877.128 408.632 882.738 400.878C888.189 393.28 891.715 384.472 893.015 375.211C894.364 365.729 893.735 355.95 890.497 346.887C889.666 344.558 888.689 342.284 887.571 340.079C886.638 338.241 883.903 337.564 882.19 338.668C881.308 339.211 880.669 340.073 880.407 341.076C880.144 342.078 880.277 343.142 880.779 344.049C881.327 345.128 881.837 346.225 882.308 347.34L881.912 346.401C883.695 350.688 884.907 355.19 885.517 359.792L885.377 358.747C886.027 363.74 886.015 368.797 885.342 373.787L885.483 372.742C884.803 377.731 883.471 382.61 881.521 387.253L881.918 386.314C880.915 388.683 879.746 390.978 878.42 393.182C877.747 394.296 877.034 395.383 876.28 396.444C875.949 396.91 875.607 397.368 875.263 397.824C874.814 398.42 875.875 397.046 875.411 397.63C875.332 397.73 875.253 397.83 875.174 397.929C874.936 398.227 874.694 398.522 874.45 398.814C872.815 400.764 871.031 402.585 869.113 404.259C868.636 404.676 868.15 405.083 867.657 405.481C867.411 405.679 867.168 405.886 866.912 406.071C866.921 406.064 867.74 405.442 867.255 405.803C867.103 405.916 866.952 406.032 866.799 406.145C865.782 406.898 864.738 407.614 863.667 408.29C861.2 409.844 858.613 411.197 855.929 412.335L856.869 411.938C852.24 413.887 847.374 415.219 842.398 415.898L843.443 415.758C838.47 416.43 833.428 416.439 828.452 415.784L829.498 415.925C824.975 415.318 820.551 414.122 816.338 412.367L817.278 412.764C814.838 411.733 812.485 410.508 810.243 409.098C809.133 408.399 808.052 407.656 807.001 406.871C806.85 406.759 806.702 406.645 806.552 406.532C806.072 406.17 806.897 406.799 806.904 406.804C806.624 406.604 806.356 406.389 806.099 406.162C805.591 405.748 805.09 405.324 804.598 404.892C802.629 403.157 800.79 401.28 799.096 399.276C798.672 398.775 798.257 398.266 797.851 397.75C797.675 397.526 797.355 397.073 798.063 398.027C797.97 397.902 797.873 397.778 797.779 397.654C797.553 397.354 797.33 397.052 797.11 396.748C796.34 395.682 795.608 394.59 794.914 393.472C793.346 390.942 791.978 388.293 790.821 385.55L791.218 386.49C789.325 381.987 788.031 377.256 787.369 372.417L787.509 373.463C786.911 369.002 786.903 364.482 787.484 360.02L787.343 361.065C787.939 356.744 789.102 352.52 790.801 348.502L790.405 349.441C791.474 346.926 792.735 344.497 794.178 342.176C794.9 341.014 795.665 339.88 796.473 338.775C796.657 338.524 796.843 338.275 797.03 338.026C797.2 337.802 797.667 337.243 796.87 338.23C796.948 338.133 797.024 338.034 797.101 337.936C797.544 337.374 797.999 336.821 798.464 336.277C800.224 334.216 802.132 332.284 804.171 330.498C804.686 330.046 805.209 329.604 805.741 329.172C805.982 328.975 806.226 328.781 806.47 328.588C806.568 328.511 806.667 328.436 806.765 328.358C805.717 329.192 806.474 328.585 806.712 328.407C807.807 327.586 808.932 326.806 810.086 326.067C812.652 324.427 815.35 323.004 818.154 321.816L817.215 322.212C821.284 320.504 839.312 316.471 842.591 316.911L841.546 316.771C846.365 317.443 851.075 318.745 855.557 320.642L854.617 320.245C856.888 321.209 859.095 322.318 861.224 323.564C862.288 324.188 863.331 324.845 864.353 325.537C864.837 325.864 865.316 326.199 865.789 326.541C866.026 326.712 866.261 326.885 866.495 327.06C866.625 327.157 866.754 327.255 866.884 327.352C867.429 327.761 866.133 326.761 866.705 327.213C868.616 328.715 870.432 330.335 872.141 332.065C872.98 332.919 873.791 333.801 874.573 334.71C874.973 335.177 875.366 335.65 875.75 336.13C875.942 336.368 876.592 337.232 875.795 336.174C875.99 336.433 876.187 336.689 876.379 336.95C878.036 339.193 879.508 341.567 880.779 344.049C881.72 345.883 884.443 346.567 886.16 345.46C887.043 344.917 887.682 344.054 887.945 343.052C888.207 342.05 888.074 340.985 887.571 340.079Z" fill="white"/>
<path d="M664.904 371.509C668.09 371.509 670.672 368.927 670.672 365.741C670.672 362.555 668.09 359.973 664.904 359.973C661.718 359.973 659.136 362.555 659.136 365.741C659.136 368.927 661.718 371.509 664.904 371.509Z" fill="#333333"/>
<path d="M734.121 434.433C737.306 434.433 739.889 431.851 739.889 428.665C739.889 425.48 737.306 422.897 734.121 422.897C730.935 422.897 728.353 425.48 728.353 428.665C728.353 431.851 730.935 434.433 734.121 434.433Z" fill="#333333"/>
<path d="M996.83 434.433C1000.02 434.433 1002.6 431.851 1002.6 428.665C1002.6 425.48 1000.02 422.897 996.83 422.897C993.644 422.897 991.061 425.48 991.061 428.665C991.061 431.851 993.644 434.433 996.83 434.433Z" fill="#333333"/>
<path d="M1010.99 361.022C1014.17 361.022 1016.76 358.439 1016.76 355.254C1016.76 352.068 1014.17 349.486 1010.99 349.486C1007.8 349.486 1005.22 352.068 1005.22 355.254C1005.22 358.439 1007.8 361.022 1010.99 361.022Z" fill="#333333"/>
<path d="M994.208 307.536C997.393 307.536 999.976 304.954 999.976 301.768C999.976 298.582 997.393 296 994.208 296C991.022 296 988.44 298.582 988.44 301.768C988.44 304.954 991.022 307.536 994.208 307.536Z" fill="#333333"/>
<path d="M753.522 355.254C753.519 356.727 752.949 358.143 751.931 359.208C750.913 360.273 749.524 360.905 748.052 360.975C746.581 361.045 745.139 360.546 744.024 359.582C742.91 358.618 742.209 357.262 742.067 355.796C741.924 354.329 742.351 352.864 743.258 351.704C744.166 350.543 745.485 349.776 746.943 349.56C748.4 349.345 749.885 349.699 751.089 350.548C752.293 351.397 753.125 352.676 753.412 354.121C753.486 354.494 753.523 354.873 753.522 355.254V355.254Z" fill="#333333"/>
<path d="M868.884 324.316C872.069 324.316 874.652 321.733 874.652 318.548C874.652 315.362 872.069 312.78 868.884 312.78C865.698 312.78 863.115 315.362 863.115 318.548C863.115 321.733 865.698 324.316 868.884 324.316Z" fill="#333333"/>
<path d="M811.727 318.548C811.724 320.021 811.154 321.437 810.136 322.502C809.118 323.567 807.729 324.2 806.257 324.269C804.786 324.339 803.344 323.84 802.229 322.876C801.115 321.912 800.414 320.556 800.272 319.09C800.129 317.623 800.556 316.158 801.463 314.998C802.371 313.837 803.69 313.07 805.148 312.855C806.605 312.639 808.09 312.993 809.294 313.842C810.498 314.691 811.33 315.97 811.617 317.415C811.691 317.788 811.728 318.168 811.727 318.548V318.548Z" fill="#333333"/>
<path d="M737.267 301.768C737.263 303.241 736.694 304.657 735.676 305.722C734.657 306.787 733.269 307.42 731.797 307.489C730.325 307.559 728.883 307.06 727.769 306.096C726.655 305.132 725.954 303.777 725.811 302.31C725.669 300.844 726.095 299.379 727.003 298.218C727.911 297.057 729.23 296.29 730.687 296.075C732.145 295.86 733.629 296.213 734.834 297.062C736.038 297.911 736.87 299.19 737.157 300.635C737.231 301.008 737.268 301.388 737.267 301.768V301.768Z" fill="#333333"/>
<path d="M929.186 373.607C932.372 373.607 934.954 371.024 934.954 367.839C934.954 364.653 932.372 362.07 929.186 362.07C926 362.07 923.418 364.653 923.418 367.839C923.418 371.024 926 373.607 929.186 373.607Z" fill="#333333"/>
<path d="M838.47 321.17C843.104 321.17 846.86 317.413 846.86 312.78C846.86 308.146 843.104 304.39 838.47 304.39C833.837 304.39 830.08 308.146 830.08 312.78C830.08 317.413 833.837 321.17 838.47 321.17Z" fill="#333333"/>
</g>
<defs>
<clipPath id="clip0_2_2">
<rect width="1119.61" height="699" fill="white"/>
</clipPath>
</defs>
</svg>
